<svg width="74" height="103" viewBox="0 0 74 103" fill="none" xmlns="http://www.w3.org/2000/svg">
<path d="M24.0834 17.2918H49.2709C54.7132 17.2918 57.4343 17.2918 59.3891 18.5979C60.2353 19.1634 60.9619 19.8899 61.5273 20.7362C62.8334 22.6909 62.8334 24.7662 62.8334 30.2085M37.0001 17.2918L35.3637 14.0191C34.008 11.3077 32.7692 8.57855 29.7648 7.45193C28.449 6.9585 26.9458 6.9585 23.9395 6.9585C19.2469 6.9585 16.9006 6.9585 15.1401 7.94098C13.8851 8.64133 12.8496 9.67685 12.1492 10.9318C11.1667 12.6924 11.1667 15.0386 11.1667 19.7312V27.6252C11.1667 39.8031 11.1667 45.8921 14.95 49.6753C18.4556 53.181 23.9412 53.4381 34.4167 53.457H37.0001" stroke="#909090" stroke-width="2" stroke-linecap="round"/>
<path d="M62.8334 56.0417L57.2868 50.4951M57.2868 50.4951C57.5827 50.1992 57.8578 49.8825 58.1096 49.5473C59.2219 48.0668 59.881 46.2265 59.881 44.2321C59.881 39.3405 55.9156 35.375 51.0239 35.375C46.1322 35.375 42.1667 39.3405 42.1667 44.2321C42.1667 49.1238 46.1322 53.0893 51.0239 53.0893C53.4697 53.0893 55.684 52.0979 57.2868 50.4951Z" stroke="#909090" stroke-width="2" stroke-linecap="round"/>
<path d="M15.336 92.096L14.258 90.024H14.216V97.5H12.704V87.728H14.468L17.66 93.132L18.738 95.204H18.78V87.728H20.292V97.5H18.528L15.336 92.096ZM25.3721 97.668C24.8681 97.668 24.4061 97.5793 23.9861 97.402C23.5755 97.2247 23.2255 96.9727 22.9361 96.646C22.6468 96.31 22.4228 95.9087 22.2641 95.442C22.1055 94.966 22.0261 94.4387 22.0261 93.86C22.0261 93.2813 22.1055 92.7587 22.2641 92.292C22.4228 91.816 22.6468 91.4147 22.9361 91.088C23.2255 90.752 23.5755 90.4953 23.9861 90.318C24.4061 90.1407 24.8681 90.052 25.3721 90.052C25.8761 90.052 26.3335 90.1407 26.7441 90.318C27.1641 90.4953 27.5188 90.752 27.8081 91.088C28.0975 91.4147 28.3215 91.816 28.4801 92.292C28.6388 92.7587 28.7181 93.2813 28.7181 93.86C28.7181 94.4387 28.6388 94.966 28.4801 95.442C28.3215 95.9087 28.0975 96.31 27.8081 96.646C27.5188 96.9727 27.1641 97.2247 26.7441 97.402C26.3335 97.5793 25.8761 97.668 25.3721 97.668ZM25.3721 96.408C25.8948 96.408 26.3148 96.2493 26.6321 95.932C26.9495 95.6053 27.1081 95.12 27.1081 94.476V93.244C27.1081 92.6 26.9495 92.1193 26.6321 91.802C26.3148 91.4753 25.8948 91.312 25.3721 91.312C24.8495 91.312 24.4295 91.4753 24.1121 91.802C23.7948 92.1193 23.6361 92.6 23.6361 93.244V94.476C23.6361 95.12 23.7948 95.6053 24.1121 95.932C24.4295 96.2493 24.8495 96.408 25.3721 96.408ZM33.6991 87.728H37.1571C37.7824 87.728 38.3471 87.8307 38.8511 88.036C39.3644 88.2413 39.7984 88.5493 40.1531 88.96C40.5171 89.3613 40.7971 89.87 40.9931 90.486C41.1891 91.0927 41.2871 91.802 41.2871 92.614C41.2871 93.426 41.1891 94.14 40.9931 94.756C40.7971 95.3627 40.5171 95.8713 40.1531 96.282C39.7984 96.6833 39.3644 96.9867 38.8511 97.192C38.3471 97.3973 37.7824 97.5 37.1571 97.5H33.6991V87.728ZM37.1571 96.1C37.8851 96.1 38.4731 95.8713 38.9211 95.414C39.3691 94.9567 39.5931 94.2847 39.5931 93.398V91.83C39.5931 90.9433 39.3691 90.2713 38.9211 89.814C38.4731 89.3567 37.8851 89.128 37.1571 89.128H35.2811V96.1H37.1571ZM48.4077 97.5C48.0064 97.5 47.6984 97.388 47.4837 97.164C47.2691 96.9307 47.1384 96.6367 47.0917 96.282H47.0217C46.8817 96.7393 46.6251 97.0847 46.2517 97.318C45.8784 97.5513 45.4257 97.668 44.8937 97.668C44.1377 97.668 43.5544 97.472 43.1437 97.08C42.7424 96.688 42.5417 96.1607 42.5417 95.498C42.5417 94.77 42.8031 94.224 43.3257 93.86C43.8577 93.496 44.6324 93.314 45.6497 93.314H46.9657V92.698C46.9657 92.25 46.8444 91.9047 46.6017 91.662C46.3591 91.4193 45.9811 91.298 45.4677 91.298C45.0384 91.298 44.6884 91.3913 44.4177 91.578C44.1471 91.7647 43.9184 92.0027 43.7317 92.292L42.8217 91.466C43.0644 91.0553 43.4051 90.7193 43.8437 90.458C44.2824 90.1873 44.8564 90.052 45.5657 90.052C46.5084 90.052 47.2317 90.2713 47.7357 90.71C48.2397 91.1487 48.4917 91.7787 48.4917 92.6V96.254H49.2617V97.5H48.4077ZM45.3277 96.506C45.8037 96.506 46.1957 96.4033 46.5037 96.198C46.8117 95.9833 46.9657 95.6987 46.9657 95.344V94.294H45.6777C44.6231 94.294 44.0957 94.6207 44.0957 95.274V95.526C44.0957 95.8527 44.2031 96.1 44.4177 96.268C44.6417 96.4267 44.9451 96.506 45.3277 96.506ZM52.6623 97.5C52.1303 97.5 51.729 97.3647 51.4583 97.094C51.1876 96.814 51.0523 96.422 51.0523 95.918V91.466H49.9183V90.22H50.5343C50.7863 90.22 50.959 90.164 51.0523 90.052C51.155 89.94 51.2063 89.758 51.2063 89.506V88.232H52.5783V90.22H54.1043V91.466H52.5783V96.254H53.9923V97.5H52.6623ZM61.0236 97.5C60.6222 97.5 60.3142 97.388 60.0996 97.164C59.8849 96.9307 59.7542 96.6367 59.7076 96.282H59.6376C59.4976 96.7393 59.2409 97.0847 58.8676 97.318C58.4942 97.5513 58.0416 97.668 57.5096 97.668C56.7536 97.668 56.1702 97.472 55.7596 97.08C55.3582 96.688 55.1576 96.1607 55.1576 95.498C55.1576 94.77 55.4189 94.224 55.9416 93.86C56.4736 93.496 57.2482 93.314 58.2656 93.314H59.5816V92.698C59.5816 92.25 59.4602 91.9047 59.2176 91.662C58.9749 91.4193 58.5969 91.298 58.0836 91.298C57.6542 91.298 57.3042 91.3913 57.0336 91.578C56.7629 91.7647 56.5342 92.0027 56.3476 92.292L55.4376 91.466C55.6802 91.0553 56.0209 90.7193 56.4596 90.458C56.8982 90.1873 57.4722 90.052 58.1816 90.052C59.1242 90.052 59.8476 90.2713 60.3516 90.71C60.8556 91.1487 61.1076 91.7787 61.1076 92.6V96.254H61.8776V97.5H61.0236ZM57.9436 96.506C58.4196 96.506 58.8116 96.4033 59.1196 96.198C59.4276 95.9833 59.5816 95.6987 59.5816 95.344V94.294H58.2936C57.2389 94.294 56.7116 94.6207 56.7116 95.274V95.526C56.7116 95.8527 56.8189 96.1 57.0336 96.268C57.2576 96.4267 57.5609 96.506 57.9436 96.506Z" fill="#878D91"/>
</svg>
